<svg width="59" height="38" viewBox="0 0 59 38" fill="none" xmlns="http://www.w3.org/2000/svg">
<path fill-rule="evenodd" clip-rule="evenodd" d="M5.53441 32.435C8.95517 35.8733 13.6809 38 18.9009 38C24.1207 38 28.8464 35.8733 32.2672 32.435L59 5.56502C55.5792 2.12665 50.8535 0 45.6336 0C40.4137 0 35.688 2.12665 32.2673 5.56497L32.2672 5.56502C28.8464 2.12665 24.1207 0 18.9009 0C7.68369 0 0.585744 8.47743 0 19.2818C0.0742788 24.4166 2.17504 29.0583 5.53441 32.435Z" fill="white"/>
<path fill-rule="evenodd" clip-rule="evenodd" d="M32.3922 5.58844C28.9582 2.1356 24.2141 0 18.9741 0C7.71344 0 0.588013 8.5131 0 19.3629C0.0745664 24.5193 2.18347 29.1806 5.55584 32.5714L32.3922 5.58844Z" fill="url(#paint0_linear_1_1008)"/>
<defs>
<linearGradient id="paint0_linear_1_1008" x1="2.32814" y1="22.0145" x2="22.2925" y2="42.4421" gradientUnits="userSpaceOnUse">
<stop stop-opacity="0.01"/>
<stop offset="0.102712" stop-opacity="0.0536334"/>
<stop offset="0.196571" stop-opacity="0.105632"/>
<stop offset="0.3031" stop-opacity="0.191599"/>
<stop offset="0.386504" stop-opacity="0.24536"/>
<stop offset="1"/>
</linearGradient>
</defs>
</svg>
